{"title":"Horror.Express.1972.720p.BluRay.x264-aAF","uid":9577101,"size":3518705713,"categoryP":"video","categoryS":"hd___movies","magnet":"?xt=urn:btih:e1bd33c22f0b95e591a21c3354303d1a8feb585b&amp;dn=Horror.Express.1972.720p.BluRay.x264-aAF&amp;tr=udp%3A%2F%2Ftracker.openbittorrent.com%3A80&amp;tr=udp%3A%2F%2Fopen.demonii.com%3A1337&amp;tr=udp%3A%2F%2Ftracker.coppersurfer.tk%3A6969&amp;tr=udp%3A%2F%2Fexodus.desync.com%3A6969","seeders":2,"leechers":2,"uploader":"mago1974","files":2,"time":1391717828,"description":"General\nUnique ID                      : 183999808354333189841160244014607197533 (0x8A6D12F60FF106EA8050957E90AF655D)\nComplete name                  : Horror.Express.1972.720p.BluRay.x264-aAF.mkv\nFormat                         : Matroska\nFormat version                 : Version 2\nFile size                      : 3.28 GiB\nDuration                       : 1h 27mn\nOverall bit rate               : 5 346 Kbps\nEncoded date                   : UTC 2011-11-30 22:55:57\nWriting application            : mkvmerge v4.9.1 ('Ich will') built on Jul 11 2011 23:53:15\nWriting library                : libebml v1.2.1 + libmatroska v1.1.1\n\nVideo\nID                             : 1\nFormat                         : AVC\nFormat/Info                    : Advanced Video Codec\nFormat profile                 : &lt;a class=&quot;__cf_email__&quot; href=&quot;/cdn-cgi/l/email-protection&quot; data-cfemail=&quot;3e765759567e720a100f&quot;&gt;[email&amp;#160;protected]&lt;/a&gt;&lt;script cf-hash='f9e31' type=&quot;text/javascript&quot;&gt;\n/* &lt;![CDATA[ */!function(){try{var t=&quot;currentScript&quot;in document?document.currentScript:function(){for(var t=document.getElementsByTagName(&quot;script&quot;),e=t.length;e--;)if(t[e].getAttribute(&quot;cf-hash&quot;))return t[e]}();if(t&amp;&amp;t.previousSibling){var e,r,n,i,c=t.previousSibling,a=c.getAttribute(&quot;data-cfemail&quot;);if(a){for(e=&quot;&quot;,r=parseInt(a.substr(0,2),16),n=2;a.length-n;n+=2)i=parseInt(a.substr(n,2),16)^r,e+=String.fromCharCode(i);e=document.createTextNode(e),c.parentNode.replaceChild(e,c)}}}catch(u){}}();/* ]]&gt; */&lt;/script&gt;\nFormat settings, CABAC         : Yes\nFormat settings, ReFrames      : 5 frames\nCodec ID                       : V_MPEG4/ISO/AVC\nDuration                       : 1h 27mn\nBit rate                       : 5 154 Kbps\nWidth                          : 1 200 pixels\nHeight                         : 720 pixels\nDisplay aspect ratio           : 1.667\nFrame rate mode                : Constant\nFrame rate                     : 24.000 fps\nColor space                    : YUV\nChroma subsampling             : 4:2:0\nBit depth                      : 8 bits\nScan type                      : Progressive\nBits/(Pixel*Frame)             : 0.249\nStream size                    : 3.09 GiB (94%)\nWriting library                : x264 core 119 r2106 07efeb4\nEncoding settings              : cabac=1 / ref=5 / deblock=1:0:0 / analyse=0x3:0x133 / me=umh / subme=8 / psy=1 / psy_rd=1.00:0.00 / mixed_ref=1 / me_range=16 / chroma_me=1 / trellis=1 / 8x8dct=1 / cqm=0 / deadzone=21,11 / fast_pskip=0 / chroma_qp_offset=-2 / threads=12 / sliced_threads=0 / nr=0 / decimate=1 / interlaced=0 / bluray_compat=0 / constrained_intra=0 / bframes=3 / b_pyramid=2 / b_adapt=1 / b_bias=0 / direct=1 / weightb=1 / open_gop=0 / weightp=2 / keyint=240 / keyint_min=24 / scenecut=40 / intra_refresh=0 / rc_lookahead=40 / rc=2pass / mbtree=1 / bitrate=5154 / ratetol=1.0 / qcomp=0.60 / qpmin=0 / qpmax=69 / qpstep=4 / cplxblur=20.0 / qblur=0.5 / ip_ratio=1.40 / aq=1:1.00\nLanguage                       : English\nDefault                        : Yes\nForced                         : No\n\nAudio\nID                             : 2\nFormat                         : AC-3\nFormat/Info                    : Audio Coding 3\nMode extension                 : CM (complete main)\nFormat settings, Endianness    : Big\nCodec ID                       : A_AC3\nDuration                       : 1h 27mn\nBit rate mode                  : Constant\nBit rate                       : 192 Kbps\nChannel count                  : 2 channels\nChannel positions              : Front: L R\nSampling rate                  : 48.0 KHz\nBit depth                      : 16 bits\nCompression mode               : Lossy\nStream size                    : 121 MiB (4%)\nDefault                        : Yes\nForced                         : No\n","torrent":{"xt":"urn:btih:e1bd33c22f0b95e591a21c3354303d1a8feb585b","amp;dn":"Horror.Express.1972.720p.BluRay.x264-aAF","amp;tr":["udp%3A%2F%2Ftracker.openbittorrent.com%3A80","udp%3A%2F%2Fopen.demonii.com%3A1337","udp%3A%2F%2Ftracker.coppersurfer.tk%3A6969","udp%3A%2F%2Fexodus.desync.com%3A6969"],"infoHash":"e1bd33c22f0b95e591a21c3354303d1a8feb585b","infoHashBuffer":{"type":"Buffer","data":[225,189,51,194,47,11,149,229,145,162,28,51,84,48,61,26,143,235,88,91]},"announce":[],"urlList":[]}}